# This file uses meters as units for non-parametric coordinates.

mtllib anvil.mtl
g default
v -14.063701 1.611789 13.042703
v 14.063701 1.611789 13.042703
v -12.208908 11.799079 11.752201
v 12.208908 11.799079 11.752201
v -12.082605 11.799079 -11.773805
v 12.082605 11.799079 -11.773805
v -13.937399 1.611789 -13.064308
v 13.937399 1.611789 -13.064308
v -14.711173 -6.635882 -14.711173
v 14.711173 -6.635882 -14.711173
v 14.711173 -6.635882 14.711173
v -14.711173 -6.635882 14.711173
v -17.334577 -2.036734 -24.180314
v 17.334577 -2.036734 -24.180314
v 17.334577 -6.635882 -24.180314
v -17.334577 -6.635882 -24.180314
v -18.387224 -2.512988 29.519146
v 18.387224 -2.512988 29.519146
v -18.387224 -6.635882 29.519146
v 18.387224 -6.635882 29.519146
v -11.998225 18.940130 11.116230
v 11.998225 18.940130 11.116230
v 11.871922 18.940130 -11.137834
v -11.871922 18.940130 -11.137834
v -15.838482 29.375009 15.049220
v 15.838482 29.375009 15.049220
v 15.838482 28.998615 -14.267122
v -15.838482 28.998615 -14.267122
v -15.838482 47.313093 17.597980
v 15.838482 47.313093 17.597980
v 15.838482 47.313093 -17.597980
v -15.838482 47.313093 -17.597980
v -10.681677 36.619263 45.163628
v 10.681677 36.619263 45.163628
v 10.681677 47.313093 45.163628
v -10.681677 47.313093 45.163628
v -8.165918 40.168172 51.435716
v 8.165918 40.168172 51.435716
v 8.165918 47.313093 51.435716
v -8.165918 47.313093 51.435716
v -5.543553 43.864507 56.120350
v 5.543553 43.864507 56.120350
v 5.543553 47.313093 56.120350
v -5.543553 47.313093 56.120350
v -11.903649 31.237335 -36.558468
v 11.903649 31.237335 -36.558468
v -11.903649 47.313093 -36.558468
v 11.903649 47.313093 -36.558468
v -7.781812 11.799079 14.045006
v 7.781812 11.799079 14.045006
v -8.904497 2.791074 15.335508
v 8.904497 2.791074 15.335508
v -13.379890 -1.333702 25.543982
v 13.379890 -1.333702 25.543982
v -13.379890 -6.635882 25.543982
v 13.379890 -6.635882 25.543982
v -8.904497 -6.635882 14.711173
v 8.904497 -6.635882 14.711173
v -8.904497 -6.635882 -14.711173
v 8.904497 -6.635882 -14.711173
v -11.571419 -6.635882 -21.383656
v 11.571419 -6.635882 -21.383656
v -11.571419 -0.857449 -21.383656
v 11.571419 -0.857449 -21.383656
v -8.904497 2.791074 -15.345176
v 8.904497 2.791074 -15.345176
v -7.781812 11.799079 -14.054674
v 7.781812 11.799079 -14.054674
v -7.654288 18.940130 -13.418703
v 7.654288 18.940130 -13.418703
v -8.297070 27.494450 -17.597980
v 8.297070 27.494450 -17.597980
v -8.046205 31.237337 -36.558468
v 8.046205 31.237335 -36.558468
v -8.046205 47.313093 -36.558468
v 8.046205 47.313093 -36.558468
v -10.427913 47.313093 -17.597980
v 10.427913 47.313093 -17.597980
v -10.427913 47.313093 17.597980
v 10.427913 47.313093 17.597980
v -7.306560 47.313093 45.163628
v 7.306560 47.313093 45.163628
v -5.783801 47.313093 51.435716
v 5.783801 47.313093 51.435716
v -2.827722 47.313093 58.199381
v 2.827722 47.313093 58.199381
v -2.827722 42.716328 58.199381
v 2.827722 42.716328 58.199381
v -5.783801 38.277532 51.435716
v 5.783801 38.277532 51.435716
v -7.306560 34.728623 45.163628
v 7.306560 34.728623 45.163628
v -10.427913 27.484369 17.597980
v 10.427913 27.484369 17.597980
v -7.654288 18.940130 13.409034
v 7.654288 18.940130 13.409034
v -12.972283 32.628615 31.787081
v -8.693037 30.737975 32.107339
v 8.693037 30.737975 32.107339
v 12.972283 32.628615 31.787081
v 12.972283 47.313093 32.919217
v 8.693037 47.313093 32.919217
v -8.693037 47.313093 32.919217
v -12.972283 47.313093 32.919217
vt 0.375000 0.500000
vt 0.625000 0.500000
vt 0.375000 0.250000
vt 0.625000 0.250000
vt 0.375000 0.500000
vt 0.625000 0.500000
vt 0.375000 0.750000
vt 0.625000 0.750000
vt 0.875000 0.000000
vt 0.875000 0.250000
vt 0.125000 0.000000
vt 0.125000 0.250000
vt 0.375000 0.750000
vt 0.625000 0.750000
vt 0.625000 1.000000
vt 0.375000 1.000000
vt 0.375000 0.750000
vt 0.625000 0.750000
vt 0.625000 0.750000
vt 0.375000 0.750000
vt 0.625000 1.000000
vt 0.375000 1.000000
vt 0.375000 1.000000
vt 0.625000 1.000000
vt 0.375000 0.250000
vt 0.625000 0.250000
vt 0.625000 0.500000
vt 0.375000 0.500000
vt 0.375000 0.250000
vt 0.625000 0.250000
vt 0.625000 0.500000
vt 0.375000 0.500000
vt 0.375000 0.250000
vt 0.625000 0.250000
vt 0.625000 0.500000
vt 0.375000 0.500000
vt 0.375000 0.250000
vt 0.625000 0.250000
vt 0.625000 0.250000
vt 0.375000 0.250000
vt 0.375000 0.250000
vt 0.625000 0.250000
vt 0.625000 0.250000
vt 0.375000 0.250000
vt 0.375000 0.250000
vt 0.625000 0.250000
vt 0.625000 0.250000
vt 0.375000 0.250000
vt 0.625000 0.500000
vt 0.375000 0.500000
vt 0.375000 0.500000
vt 0.625000 0.500000
vt 0.424339 0.250000
vt 0.575661 0.250000
vt 0.424339 0.500000
vt 0.575661 0.500000
vt 0.424339 1.000000
vt 0.575661 1.000000
vt 0.424339 1.000000
vt 0.575661 1.000000
vt 0.424339 1.000000
vt 0.575661 1.000000
vt 0.424339 0.750000
vt 0.575661 0.750000
vt 0.424339 0.750000
vt 0.575661 0.750000
vt 0.424339 0.750000
vt 0.575661 0.750000
vt 0.424339 0.750000
vt 0.575661 0.750000
vt 0.424339 0.500000
vt 0.575661 0.500000
vt 0.424339 0.500000
vt 0.575661 0.500000
vt 0.424339 0.500000
vt 0.575661 0.500000
vt 0.424339 0.500000
vt 0.575661 0.500000
vt 0.424339 0.500000
vt 0.575661 0.500000
vt 0.424339 0.500000
vt 0.575661 0.500000
vt 0.424339 0.250000
vt 0.575661 0.250000
vt 0.424339 0.250000
vt 0.575661 0.250000
vt 0.424339 0.250000
vt 0.575661 0.250000
vt 0.424339 0.250000
vt 0.575661 0.250000
vt 0.424339 0.250000
vt 0.575661 0.250000
vt 0.424339 0.250000
vt 0.575661 0.250000
vt 0.424339 0.250000
vt 0.575661 0.250000
vt 0.424339 0.250000
vt 0.575661 0.250000
vt 0.424339 0.250000
vt 0.575661 0.250000
vt 0.375000 0.250000
vt 0.424339 0.250000
vt 0.575661 0.250000
vt 0.625000 0.250000
vt 0.625000 0.250000
vt 0.575661 0.250000
vt 0.424339 0.250000
vt 0.375000 0.250000
vn 0.000000 1.000000 0.000000
vn 0.000000 1.000000 0.000000
vn 0.000000 1.000000 0.000000
vn 0.000000 1.000000 0.000000
vn 0.000000 0.141814 -0.989893
vn 0.000000 0.120581 -0.992703
vn 0.000000 0.120581 -0.992703
vn 0.000000 0.141814 -0.989893
vn 0.000000 -1.000000 0.000000
vn 0.000000 -1.000000 0.000000
vn 0.000000 -1.000000 0.000000
vn 0.000000 -1.000000 0.000000
vn 0.992563 0.116985 -0.033673
vn 0.992333 0.121982 0.019900
vn 0.992026 0.125929 -0.005202
vn 0.992020 0.125976 -0.005202
vn -0.992333 0.121981 0.019900
vn -0.992563 0.116985 -0.033673
vn -0.992020 0.125976 -0.005202
vn -0.992026 0.125929 -0.005202
vn 0.088335 0.000000 -0.996091
vn 0.079844 0.000000 -0.996807
vn -0.079844 0.000000 -0.996807
vn -0.088335 0.000000 -0.996091
vn 0.994040 0.061968 -0.089689
vn 0.994779 0.068933 0.075255
vn -0.112485 0.000000 0.993653
vn -0.101220 0.000000 0.994864
vn 0.101220 0.000000 0.994864
vn 0.112485 0.000000 0.993653
vn -0.994779 0.068933 0.075255
vn -0.994040 0.061968 -0.089689
vn -0.076115 0.892410 -0.444759
vn -0.038785 0.875829 -0.481061
vn 0.038785 0.875829 -0.481061
vn 0.076115 0.892410 -0.444759
vn 0.960613 0.022350 0.276991
vn 0.960613 0.022350 0.276991
vn 0.000000 -1.000000 0.000000
vn 0.000000 -1.000000 0.000000
vn 0.000000 -1.000000 0.000000
vn 0.000000 -1.000000 0.000000
vn -0.960613 0.022350 0.276991
vn -0.960613 0.022350 0.276991
vn -0.969233 0.017616 -0.245515
vn -0.969233 0.017616 -0.245515
vn 0.000000 -1.000000 0.000000
vn 0.000000 -1.000000 0.000000
vn 0.000000 -1.000000 0.000000
vn 0.000000 -1.000000 0.000000
vn 0.969233 0.017616 -0.245515
vn 0.969233 0.017616 -0.245515
vn 0.973595 -0.228274 -0.001710
vn 0.972924 -0.231119 -0.001666
vn 0.000000 -0.228616 -0.973517
vn 0.000000 -0.228616 -0.973517
vn -0.972924 -0.231119 -0.001666
vn -0.973595 -0.228274 -0.001710
vn 0.000000 -0.440207 0.897896
vn 0.000000 -0.261119 0.965307
vn 0.000000 -0.261119 0.965307
vn 0.000000 -0.440207 0.897896
vn 0.995921 -0.076417 -0.047973
vn 0.996340 -0.077935 0.035105
vn 0.000000 -0.438970 -0.898502
vn 0.000000 -0.438970 -0.898502
vn -0.996340 -0.077935 0.035105
vn -0.995921 -0.076417 -0.047973
vn -0.220917 0.000000 0.975293
vn -0.188075 0.000000 0.982155
vn 0.188075 0.000000 0.982155
vn 0.220917 0.000000 0.975293
vn 0.996568 -0.007980 -0.082391
vn 0.998025 -0.007043 0.062420
vn 0.000000 0.000000 -1.000000
vn 0.000000 0.000000 -1.000000
vn 0.000000 0.000000 -1.000000
vn 0.000000 0.000000 -1.000000
vn -0.998025 -0.007043 0.062420
vn -0.996568 -0.007980 -0.082391
vn -0.096971 -0.927592 0.360791
vn -0.091935 -0.961666 0.258353
vn 0.091935 -0.961666 0.258353
vn 0.096971 -0.927592 0.360791
vn 0.983939 -0.016532 0.177738
vn 0.983977 -0.015120 0.177651
vn 0.973041 -0.005804 0.230560
vn 0.977165 -0.006525 0.212384
vn 0.000000 1.000000 0.000000
vn 0.000000 1.000000 0.000000
vn 0.000000 1.000000 0.000000
vn 0.000000 1.000000 0.000000
vn -0.983977 -0.015119 0.177651
vn -0.983939 -0.016532 0.177738
vn -0.977165 -0.006525 0.212384
vn -0.973041 -0.005804 0.230560
vn -0.124317 -0.828042 0.546710
vn 0.124317 -0.828042 0.546710
vn 0.911969 0.000000 0.410258
vn 0.919159 0.000000 0.393887
vn 0.000000 1.000000 -0.000000
vn 0.000000 1.000000 -0.000000
vn 0.000000 1.000000 -0.000000
vn 0.000000 1.000000 -0.000000
vn -0.919159 0.000000 0.393887
vn -0.911969 0.000000 0.410258
vn -0.084295 -0.811723 0.577927
vn 0.084295 -0.811723 0.577927
vn 0.872588 0.000000 0.488457
vn 0.872588 0.000000 0.488457
vn 0.000000 1.000000 0.000000
vn 0.000000 1.000000 0.000000
vn 0.000000 1.000000 0.000000
vn 0.000000 1.000000 0.000000
vn -0.872588 0.000000 0.488457
vn -0.872588 0.000000 0.488457
vn 0.046881 -0.981645 -0.184864
vn 0.055552 -0.981507 -0.183187
vn -0.055552 -0.981507 -0.183187
vn -0.046881 -0.981645 -0.184864
vn -0.981939 -0.018239 -0.188316
vn -0.981939 -0.018239 -0.188316
vn 0.000000 1.000000 -0.000000
vn 0.000000 1.000000 -0.000000
vn 0.000000 1.000000 -0.000000
vn 0.000000 1.000000 -0.000000
vn 0.981939 -0.018239 -0.188316
vn 0.981939 -0.018239 -0.188316
vn -0.031871 0.935571 0.351698
vn -0.069674 0.943586 0.323714
vn 0.069674 0.943586 0.323714
vn 0.031871 0.935571 0.351698
vn 0.000000 0.141814 0.989893
vn 0.000000 0.141814 0.989893
vn 0.000000 0.120581 0.992703
vn 0.000000 0.120581 0.992703
vn -0.481800 -0.287405 0.827809
vn -0.450540 0.148382 0.880339
vn -0.450845 0.146853 0.880439
vn -0.482487 -0.268391 0.833770
vn -0.182609 0.954705 0.234932
vn -0.182609 0.954705 0.234932
vn 0.621762 0.000000 0.783206
vn 0.621763 0.000000 0.783206
vn 0.000000 -1.000000 0.000000
vn 0.000000 -1.000000 0.000000
vn 0.000000 -1.000000 0.000000
vn 0.000000 -1.000000 0.000000
vn 0.000000 -1.000000 0.000000
vn 0.000000 -1.000000 0.000000
vn 0.436577 0.000000 -0.899667
vn 0.436577 0.000000 -0.899667
vn -0.186648 0.926074 -0.327946
vn -0.186648 0.926074 -0.327946
vn -0.458736 0.148697 -0.876043
vn -0.459039 0.147235 -0.876131
vn -0.450330 0.187238 -0.873009
vn -0.450330 0.187238 -0.873009
vn -0.459541 -0.262027 -0.848625
vn -0.458960 -0.266932 -0.847410
vn -0.434031 -0.420364 -0.796813
vn -0.434031 -0.420364 -0.796813
vn -0.174585 -0.971781 -0.158625
vn -0.174585 -0.971781 -0.158625
vn 0.000000 0.000000 -1.000000
vn 0.000000 0.000000 -1.000000
vn 0.000000 1.000000 0.000000
vn 0.000000 1.000000 0.000000
vn 0.000000 1.000000 0.000000
vn 0.000000 1.000000 0.000000
vn 0.000000 1.000000 0.000000
vn 0.000000 1.000000 0.000000
vn 0.000000 1.000000 0.000000
vn 0.000000 1.000000 0.000000
vn 0.000000 1.000000 -0.000001
vn 0.000000 1.000000 -0.000001
vn -0.607859 0.000000 0.794045
vn -0.607859 0.000000 0.794045
vn -0.515810 -0.615638 0.595761
vn -0.568416 -0.514134 0.642316
vn -0.442975 -0.809359 0.385631
vn -0.420983 -0.865571 0.271219
vn -0.462890 -0.480167 0.745099
vn -0.462890 -0.480167 0.745099
vn 0.462890 -0.480167 0.745099
vn 0.482487 -0.268391 0.833770
vn 0.481800 -0.287405 0.827809
vn 0.462890 -0.480167 0.745099
vn 0.420983 -0.865571 0.271219
vn 0.442975 -0.809359 0.385631
vn 0.515810 -0.615638 0.595761
vn 0.568416 -0.514134 0.642316
vn 0.607859 0.000000 0.794045
vn 0.607859 0.000000 0.794045
vn 0.000000 1.000000 0.000000
vn 0.000000 1.000000 0.000000
vn 0.000000 1.000000 0.000000
vn 0.000000 1.000000 0.000000
vn 0.000000 1.000000 0.000000
vn 0.000000 1.000000 0.000000
vn 0.000000 1.000000 0.000000
vn 0.000000 1.000000 0.000000
vn 0.000000 1.000000 0.000000
vn 0.000000 1.000000 0.000000
vn 0.000000 0.000000 -1.000000
vn 0.000000 0.000000 -1.000000
vn 0.174586 -0.971781 -0.158625
vn 0.174586 -0.971781 -0.158625
vn 0.458960 -0.266932 -0.847410
vn 0.459541 -0.262028 -0.848625
vn 0.434031 -0.420364 -0.796813
vn 0.434031 -0.420364 -0.796813
vn 0.458736 0.148697 -0.876043
vn 0.459039 0.147235 -0.876131
vn 0.450330 0.187238 -0.873009
vn 0.450330 0.187238 -0.873009
vn 0.186648 0.926074 -0.327946
vn 0.186648 0.926074 -0.327946
vn -0.436577 0.000000 -0.899667
vn -0.436577 0.000000 -0.899667
vn 0.000000 -1.000000 0.000000
vn 0.000000 -1.000000 0.000000
vn 0.000000 -1.000000 0.000000
vn 0.000000 -1.000000 0.000000
vn 0.000000 -1.000000 0.000000
vn 0.000000 -1.000000 0.000000
vn -0.621762 0.000000 0.783206
vn -0.621763 0.000000 0.783206
vn 0.182609 0.954705 0.234931
vn 0.182609 0.954705 0.234931
vn 0.450845 0.146853 0.880439
vn 0.442528 0.186582 0.877129
vn 0.442528 0.186582 0.877129
vn 0.450540 0.148382 0.880339
vn -0.442528 0.186582 0.877129
vn -0.442528 0.186582 0.877129
vn -0.414334 -0.876912 0.243626
vn -0.121055 -0.965573 0.230250
vn 0.121055 -0.965573 0.230249
vn 0.414334 -0.876912 0.243626
vn 0.000000 1.000000 0.000000
vn 0.000000 1.000000 -0.000000
vn 0.000000 1.000000 -0.000000
vn 0.000000 1.000000 0.000000
s 1
g pCube3
usemtl initialShadingGroup
f 77/81/1 79/83/2 80/84/3 78/82/4
s 2
f 65/69/5 67/71/6 68/72/7 66/70/8
s 3
f 57/61/9 59/63/10 60/64/11 58/62/12
s 4
f 2/2/13 8/9/14 6/10/15 4/4/16
s 5
f 7/11/17 1/1/18 3/3/19 5/12/20
s 6
f 61/65/21 63/67/22 64/68/23 62/66/24
s 4
f 8/8/14 2/2/13 11/15/25 10/14/26
s 7
f 56/60/27 54/58/28 53/57/29 55/59/30
s 5
f 1/1/18 7/7/17 9/13/31 12/16/32
s 8
f 63/67/33 65/69/34 66/70/35 64/68/36
s 4
f 8/8/14 10/14/26 15/19/37 14/18/38
s 9
f 62/66/39 60/64/40 59/63/41 61/65/42
s 5
f 9/13/31 7/7/17 13/17/43 16/20/44
f 1/1/18 12/16/32 19/23/45 17/22/46
s 10
f 55/59/47 57/61/48 58/62/49 56/60/50
s 4
f 11/15/25 2/2/13 18/21/51 20/24/52
f 4/4/16 6/6/15 23/27/53 22/26/54
s 2
f 70/74/55 68/72/7 67/71/6 69/73/56
s 5
f 5/5/20 3/3/19 21/25/57 24/28/58
s 11
f 93/97/59 95/99/60 96/100/61 94/98/62
s 4
f 22/26/54 23/27/53 27/31/63 26/30/64
s 2
f 72/76/65 70/74/55 69/73/56 71/75/66
s 5
f 24/28/58 21/25/57 25/29/67 28/32/68
s 12
f 85/89/69 87/91/70 88/92/71 86/90/72
s 4
f 26/30/64 27/31/63 31/35/73 30/34/74
s 13
f 76/80/75 74/78/76 73/77/77 75/79/78
s 5
f 28/32/68 25/29/67 29/33/79 32/36/80
s 14
f 91/95/81 98/102/82 99/103/83 92/96/84
s 4
f 100/104/85 101/105/86 35/39/87 34/38/88
s 15
f 82/86/89 102/106/90 103/107/91 81/85/92
s 5
f 104/108/93 97/101/94 33/37/95 36/40/96
s 14
f 89/93/97 91/95/81 92/96/84 90/94/98
s 4
f 34/38/88 35/39/87 39/43/99 38/42/100
s 16
f 84/88/101 82/86/102 81/85/103 83/87/104
s 5
f 36/40/96 33/37/95 37/41/105 40/44/106
s 14
f 87/91/107 89/93/97 90/94/98 88/92/108
s 4
f 38/42/100 39/43/99 43/47/109 42/46/110
s 17
f 86/90/111 84/88/112 83/87/113 85/89/114
s 5
f 40/44/106 37/41/105 41/45/115 44/48/116
s 18
f 74/78/117 72/76/118 71/75/119 73/77/120
s 5
f 28/32/68 32/36/80 47/51/121 45/50/122
s 19
f 75/79/123 77/81/124 78/82/125 76/80/126
s 4
f 31/35/73 27/31/63 46/49/127 48/52/128
s 20
f 51/55/129 53/57/130 54/58/131 52/56/132
s 11
f 51/55/133 52/56/134 50/54/135 49/53/136
s 21
f 21/25/137 3/3/138 49/53/139 95/99/140
s 20
f 1/1/141 17/22/142 53/57/130 51/55/129
s 7
f 55/59/30 53/57/29 17/22/143 19/23/144
s 10
f 12/16/145 57/61/48 55/59/47 19/23/146
s 3
f 9/13/147 59/63/10 57/61/9 12/16/148
s 9
f 61/65/42 59/63/41 9/13/149 16/20/150
s 6
f 13/17/151 63/67/22 61/65/21 16/20/152
s 8
f 7/7/153 65/69/34 63/67/33 13/17/154
s 22
f 5/5/155 67/71/156 65/69/157 7/7/158
f 69/73/159 67/71/156 5/5/155 24/28/160
f 71/75/161 69/73/159 24/28/160 28/32/162
s 18
f 73/77/120 71/75/119 28/32/163 45/50/164
s 13
f 75/79/78 73/77/77 45/50/165 47/51/166
s 19
f 32/36/167 77/81/124 75/79/123 47/51/168
s 1
f 29/33/169 79/83/2 77/81/1 32/36/170
s 15
f 81/85/92 103/107/91 104/108/171 36/40/172
s 16
f 83/87/104 81/85/103 36/40/173 40/44/174
s 17
f 85/89/114 83/87/113 40/44/175 44/48/176
s 12
f 41/45/177 87/91/70 85/89/69 44/48/178
s 14
f 37/41/179 89/93/97 87/91/107 41/45/180
f 33/37/181 91/95/81 89/93/97 37/41/179
f 97/101/182 98/102/82 91/95/81 33/37/181
s 21
f 21/25/137 95/99/140 93/97/183 25/29/184
s 23
f 94/98/185 96/100/186 22/26/187 26/30/188
s 14
f 92/96/84 99/103/83 100/104/189 34/38/190
f 90/94/98 92/96/84 34/38/190 38/42/191
f 88/92/108 90/94/98 38/42/191 42/46/192
s 12
f 86/90/72 88/92/71 42/46/193 43/47/194
s 17
f 39/43/195 84/88/112 86/90/111 43/47/196
s 16
f 35/39/197 82/86/102 84/88/101 39/43/198
s 15
f 101/105/199 102/106/90 82/86/89 35/39/200
s 1
f 78/82/4 80/84/3 30/34/201 31/35/202
s 19
f 76/80/126 78/82/125 31/35/203 48/52/204
s 13
f 46/49/205 74/78/76 76/80/75 48/52/206
s 18
f 27/31/207 72/76/118 74/78/117 46/49/208
s 24
f 23/27/209 70/74/210 72/76/211 27/31/212
f 6/6/213 68/72/214 70/74/210 23/27/209
f 66/70/215 68/72/214 6/6/213 8/8/216
s 8
f 64/68/36 66/70/35 8/8/217 14/18/218
s 6
f 62/66/24 64/68/23 14/18/219 15/19/220
s 9
f 10/14/221 60/64/40 62/66/39 15/19/222
s 3
f 58/62/12 60/64/11 10/14/223 11/15/224
s 10
f 56/60/50 58/62/49 11/15/225 20/24/226
s 7
f 18/21/227 54/58/28 56/60/27 20/24/228
s 20
f 52/56/132 54/58/131 18/21/229 2/2/230
s 23
f 50/54/231 52/56/232 2/2/233 4/4/234
f 96/100/186 50/54/231 4/4/234 22/26/187
s 11
f 95/99/60 49/53/136 50/54/135 96/100/61
s 21
f 51/55/235 49/53/139 3/3/138 1/1/236
s 14
f 25/29/237 93/97/238 98/102/82 97/101/182
f 99/103/83 98/102/82 93/97/238 94/98/239
f 100/104/189 99/103/83 94/98/239 26/30/240
s 4
f 26/30/64 30/34/74 101/105/86 100/104/85
s 15
f 30/34/241 80/84/242 102/106/90 101/105/199
f 103/107/91 102/106/90 80/84/242 79/83/243
f 104/108/171 103/107/91 79/83/243 29/33/244
s 5
f 29/33/79 25/29/67 97/101/94 104/108/93
