# This file uses meters as units for non-parametric coordinates.

mtllib banner3.mtl
g default
v 0.000000 275.839106 -26.002237
v 0.000000 203.603187 -26.002237
v -0.000000 117.189793 -26.002237
v -0.000000 80.432769 -26.002237
v 0.000000 275.839106 -72.058005
v 0.000000 203.603187 -72.058005
v -0.000000 117.189793 -72.058005
v -0.000000 45.814407 -72.058005
v 0.000000 275.839106 -118.113776
v 0.000000 203.603187 -118.113776
v -0.000000 117.189793 -118.113776
v -0.000000 80.432769 -118.113776
vt 0.000000 1.000000
vt 0.000000 0.685965
vt 0.500000 0.685965
vt 0.500000 1.000000
vt 0.000000 0.310295
vt 0.500000 0.310295
vt 0.000000 0.150499
vt 0.500000 0.000000
vt 1.000000 0.685965
vt 1.000000 1.000000
vt 1.000000 0.310295
vt 1.000000 0.150499
vn 1.000000 -0.000000 0.000000
vn 1.000000 -0.000000 0.000000
vn 1.000000 -0.000000 0.000000
vn 1.000000 -0.000000 0.000000
vn 1.000000 -0.000000 0.000000
vn 1.000000 -0.000000 0.000000
vn 1.000000 -0.000000 0.000000
vn 1.000000 -0.000000 0.000000
vn 1.000000 -0.000000 0.000000
vn 1.000000 -0.000000 0.000000
vn 1.000000 -0.000000 -0.000000
vn 1.000000 -0.000000 -0.000000
s 1
g pasted__pasted__pPlane3
usemtl initialShadingGroup
f 1/1/1 2/2/2 6/3/3 5/4/4
f 2/2/2 3/5/5 7/6/6 6/3/3
f 3/5/5 4/7/7 8/8/8 7/6/6
f 5/4/4 6/3/3 10/9/9 9/10/10
f 6/3/3 7/6/6 11/11/11 10/9/9
f 7/6/6 8/8/8 12/12/12 11/11/11
