# This file uses meters as units for non-parametric coordinates.

mtllib banner1.mtl
g default
v 0.000000 275.839085 179.252885
v 0.000000 203.603187 179.252885
v -0.000000 117.189793 179.252885
v -0.000000 44.251013 179.252885
v 0.000000 275.839085 133.197119
v 0.000000 203.603187 133.197119
v -0.000000 117.189793 133.197119
v -0.000000 45.814402 133.197119
v 0.000000 275.839085 87.141343
v 0.000000 203.603187 87.141343
v -0.000000 117.189793 87.141343
v -0.000000 44.251013 87.141343
vt 0.000000 1.000000
vt 0.000000 0.688085
vt 0.500000 0.688085
vt 0.500000 1.000000
vt 0.000000 0.314951
vt 0.500000 0.314951
vt 0.000000 0.000000
vt 0.500000 0.006751
vt 1.000000 0.688085
vt 1.000000 1.000000
vt 1.000000 0.314951
vt 1.000000 0.000000
vn 1.000000 -0.000000 0.000000
vn 1.000000 -0.000000 0.000000
vn 1.000000 -0.000000 0.000000
vn 1.000000 -0.000000 0.000000
vn 1.000000 -0.000000 0.000000
vn 1.000000 -0.000000 0.000000
vn 1.000000 -0.000000 0.000000
vn 1.000000 -0.000000 0.000000
vn 1.000000 -0.000000 0.000000
vn 1.000000 -0.000000 0.000000
vn 1.000000 -0.000000 -0.000000
vn 1.000000 -0.000000 -0.000000
s 1
g pasted__pPlane2
usemtl initialShadingGroup
f 1/1/1 2/2/2 6/3/3 5/4/4
f 2/2/2 3/5/5 7/6/6 6/3/3
f 3/5/5 4/7/7 8/8/8 7/6/6
f 5/4/4 6/3/3 10/9/9 9/10/10
f 6/3/3 7/6/6 11/11/11 10/9/9
f 7/6/6 8/8/8 12/12/12 11/11/11
