# Blender v2.75 (sub 0) OBJ File: 'Pick.blend'
# www.blender.org
mtllib Pick.mtl
o Pick_Cylinder
v 0.000000 -2.220279 -0.120000
v 0.000000 1.458209 -0.120000
v 0.076537 -2.220279 -0.110866
v 0.076537 1.458209 -0.110866
v 0.141421 -2.220279 -0.084853
v 0.141421 1.458209 -0.084853
v 0.184776 -2.220279 -0.045922
v 0.184776 1.458209 -0.045922
v 0.200000 -2.220279 0.000000
v 0.200000 1.458209 0.000000
v 0.184776 -2.220279 0.045922
v 0.184776 1.458209 0.045922
v 0.141421 -2.220279 0.084853
v 0.141421 1.458209 0.084853
v 0.076537 -2.220279 0.110866
v 0.076537 1.458209 0.110866
v 0.000000 -2.220279 0.120000
v 0.000000 1.458209 0.120000
v -0.076537 -2.220279 0.110866
v -0.076537 1.458209 0.110866
v -0.141421 -2.220279 0.084853
v -0.141421 1.458209 0.084853
v -0.184776 -2.220279 0.045922
v -0.184776 1.458209 0.045922
v -0.200000 -2.220279 -0.000000
v -0.200000 1.458209 -0.000000
v -0.184776 -2.220279 -0.045922
v -0.184776 1.458209 -0.045922
v -0.141421 -2.220279 -0.084853
v -0.141421 1.458209 -0.084853
v -0.076537 -2.220279 -0.110866
v -0.076537 1.458209 -0.110866
v 0.000000 -2.247388 -0.095056
v 0.060627 -2.247388 -0.087820
v 0.112024 -2.247388 -0.067215
v 0.146367 -2.247388 -0.036376
v 0.158426 -2.247388 0.000000
v 0.146367 -2.247388 0.036376
v 0.112024 -2.247388 0.067215
v 0.060627 -2.247388 0.087820
v 0.000000 -2.247388 0.095056
v -0.060627 -2.247388 0.087820
v -0.112024 -2.247388 0.067215
v -0.146367 -2.247388 0.036376
v -0.158426 -2.247388 -0.000000
v -0.146367 -2.247388 -0.036376
v -0.112024 -2.247388 -0.067215
v -0.060627 -2.247388 -0.087820
v -0.000000 1.484036 -0.105431
v 0.067244 1.484036 -0.097405
v 0.124251 1.484036 -0.074551
v 0.162342 1.484036 -0.040347
v 0.175718 1.484036 0.000000
v 0.162342 1.484036 0.040347
v 0.124251 1.484036 0.074551
v 0.067244 1.484036 0.097405
v 0.000000 1.484036 0.105431
v -0.067244 1.484036 0.097405
v -0.124251 1.484036 0.074551
v -0.162342 1.484036 0.040347
v -0.175718 1.484036 -0.000000
v -0.162342 1.484036 -0.040347
v -0.124251 1.484036 -0.074551
v -0.067244 1.484036 -0.097405
v 0.000000 1.344075 -0.120000
v 0.076537 1.344075 -0.110866
v 0.141421 1.344075 -0.084853
v 0.184776 1.344075 -0.045922
v 0.200000 1.344075 0.000000
v 0.184776 1.344075 0.045922
v 0.141421 1.344075 0.084853
v 0.076537 1.344075 0.110866
v 0.000000 1.344075 0.120000
v -0.076537 1.344075 0.110866
v -0.141421 1.344075 0.084853
v -0.184776 1.344075 0.045922
v -0.200000 1.344075 -0.000000
v -0.184776 1.344075 -0.045922
v -0.141421 1.344075 -0.084853
v -0.076537 1.344075 -0.110866
v 0.076537 0.913139 -0.110866
v 0.141421 0.913139 -0.084853
v 0.184776 0.913139 -0.045922
v 0.200000 0.913139 0.000000
v 0.184776 0.913139 0.045922
v 0.141421 0.913139 0.084853
v 0.076537 0.913139 0.110866
v 0.000000 0.913139 0.120000
v -0.076537 0.913139 0.110866
v -0.141421 0.913139 0.084853
v -0.184776 0.913139 0.045922
v -0.200000 0.913139 -0.000000
v -0.184776 0.913139 -0.045922
v -0.141421 0.913139 -0.084853
v -0.076537 0.913139 -0.110866
v 0.000000 0.913139 -0.120000
v -0.000000 0.932189 -0.158400
v -0.000000 1.327640 -0.158400
v -0.186676 1.327640 -0.112006
v -0.101028 1.327640 -0.146343
v -0.243904 1.327640 -0.075728
v -0.264000 1.327640 -0.000000
v -0.243904 1.327640 0.075728
v -0.186676 1.327640 0.112006
v -0.101028 1.327640 0.146342
v 0.000000 1.327640 0.158400
v 0.101028 1.327640 0.146342
v 0.186676 1.327640 0.112006
v 0.243904 1.327640 0.075500
v 0.264000 1.327640 0.000000
v 0.243904 1.327640 -0.075500
v 0.186676 1.327640 -0.112006
v 0.101028 1.327640 -0.146342
v 0.101028 0.932189 -0.146342
v 0.186676 0.932189 -0.112006
v 0.243904 0.932189 -0.075500
v 0.264000 0.932189 0.000000
v 0.243904 0.932189 0.075500
v 0.186676 0.932189 0.112006
v 0.101028 0.932189 0.146342
v 0.000000 0.932189 0.158400
v -0.101028 0.932189 0.146342
v -0.186676 0.932189 0.112006
v -0.243904 0.932189 0.075728
v -0.264000 0.932189 -0.000000
v -0.243904 0.932189 -0.075728
v -0.186676 0.932189 -0.112006
v -0.101028 0.932189 -0.146343
v 0.264000 1.129914 0.000000
v 0.243904 1.129914 -0.075500
v 0.243904 1.129914 0.075500
v 0.376580 1.327640 0.000000
v 0.376917 1.317048 0.071097
v 0.376917 1.317048 -0.071097
v 0.376580 1.129914 0.000000
v 0.376917 1.146559 -0.071097
v 0.376917 1.146559 0.071097
v 1.594158 1.163470 -0.000000
v 1.594347 1.152827 0.041245
v 1.594347 1.152827 -0.041245
v 1.574727 1.076261 -0.000000
v 1.574916 1.092855 -0.041245
v 1.574916 1.092855 0.041245
v 1.785272 1.014612 -0.000000
v 1.038750 1.140932 0.000000
v 1.039037 1.157544 0.061044
v 1.058333 1.275179 -0.061044
v 1.039037 1.157544 -0.061044
v 1.058047 1.285804 0.000000
v 1.058333 1.275179 0.061044
v 0.243904 1.228777 0.075500
v 0.376917 1.228777 0.087905
v 1.589861 1.115892 0.050996
v 1.048685 1.217257 0.075475
v 0.243904 1.228777 -0.075500
v 0.376917 1.228777 -0.087905
v 1.589861 1.115892 -0.050996
v 1.048685 1.217257 -0.075475
v -0.264000 1.207233 -0.000000
v -0.243904 1.219494 0.075728
v -0.243904 1.219494 -0.075728
v -0.367306 1.307221 -0.000399
v -0.368683 1.307221 -0.131203
v -0.368683 1.307221 0.130406
v -0.367306 1.257769 -0.000399
v -0.368683 1.257769 0.130406
v -0.368683 1.257769 -0.131203
v -0.389017 1.307221 -0.000399
v -0.390394 1.307221 -0.148714
v -0.390394 1.307221 0.147917
v -0.389017 1.257769 -0.000399
v -0.390394 1.257769 0.147917
v -0.390394 1.257769 -0.148714
v -0.428366 1.307221 -0.000399
v -0.429744 1.307221 -0.185685
v -0.429744 1.307221 0.184888
v -0.428366 1.257769 -0.000399
v -0.429744 1.257769 0.184888
v -0.429744 1.257769 -0.185685
v -0.477356 1.307221 0.001290
v -0.478733 1.307221 -0.197582
v -0.478733 1.307221 0.200161
v -0.477356 1.257769 0.001290
v -0.478733 1.257769 0.200161
v -0.478733 1.257769 -0.197582
v -1.487702 1.198262 0.001290
v -1.489031 1.197900 -0.197582
v -1.489031 1.197900 0.200161
v -1.478706 1.165259 0.001290
v -1.480035 1.164897 0.200161
v -1.480035 1.164897 -0.197582
v -1.503011 1.189839 0.001290
v -1.504190 1.189518 -0.175281
v -1.504190 1.189518 0.177861
v -1.496171 1.164748 0.001290
v -1.497351 1.164427 0.177861
v -1.497351 1.164427 -0.175281
v -0.262949 1.296926 -0.000000
v -0.253434 1.296926 0.067834
v -0.262949 1.240532 -0.000000
v -0.253434 1.252377 -0.067834
v -0.253434 1.252377 0.067834
v -0.253434 1.296926 -0.067834
v -0.822687 1.303604 0.200161
v -1.151185 1.273211 0.200161
v -1.145646 1.232128 0.200161
v -0.820368 1.254207 0.200161
v -0.821311 1.303668 0.001290
v -1.149820 1.273395 0.001290
v -1.144281 1.232312 0.001290
v -0.818992 1.254272 0.001290
v -0.820368 1.254207 -0.197582
v -1.145646 1.232128 -0.197582
v -1.151185 1.273211 -0.197582
v -0.822687 1.303604 -0.197582
vn 0.118500 0.000000 -0.993000
vn 0.372100 0.000000 -0.928200
vn 0.668100 0.000000 -0.744000
vn 0.949200 0.000000 -0.314700
vn 0.949200 0.000000 0.314700
vn 0.668100 0.000000 0.744000
vn 0.372100 0.000000 0.928200
vn 0.118500 0.000000 0.993000
vn -0.118500 0.000000 0.993000
vn -0.372100 0.000000 0.928200
vn -0.668100 0.000000 0.744000
vn -0.949200 0.000000 0.314700
vn -0.949200 0.000000 -0.314700
vn -0.668100 0.000000 -0.744000
vn 0.536800 0.595300 0.597800
vn -0.118500 0.000000 -0.993000
vn -0.372100 0.000000 -0.928200
vn 0.425900 -0.770500 0.474300
vn 0.000000 -1.000000 -0.000000
vn -0.425900 -0.770500 0.474300
vn -0.087500 -0.674500 -0.733100
vn 0.537500 -0.824200 -0.178200
vn -0.087500 -0.674500 0.733100
vn -0.425900 -0.770500 -0.474300
vn 0.262200 -0.709700 -0.653900
vn 0.262200 -0.709700 0.653900
vn -0.537500 -0.824200 0.178200
vn 0.537500 -0.824200 0.178200
vn -0.262200 -0.709700 0.653900
vn -0.262200 -0.709700 -0.653900
vn 0.425900 -0.770500 -0.474300
vn 0.087500 -0.674500 0.733100
vn 0.087500 -0.674500 -0.733100
vn -0.537500 -0.824200 -0.178200
vn 0.000000 1.000000 -0.000000
vn -0.536800 0.595300 0.597800
vn -0.103400 0.488700 -0.866300
vn 0.708200 0.665800 -0.234800
vn -0.103400 0.488700 0.866300
vn -0.536800 0.595300 -0.597800
vn 0.316600 0.525500 -0.789700
vn 0.316600 0.525500 0.789700
vn -0.708200 0.665800 0.234800
vn 0.708200 0.665800 0.234800
vn -0.316600 0.525500 0.789700
vn -0.316600 0.525500 -0.789700
vn 0.536800 0.595300 -0.597800
vn 0.103400 0.488700 0.866300
vn 0.103400 0.488700 -0.866300
vn -0.708200 0.665800 -0.234800
vn 0.153600 -0.910900 -0.383100
vn -0.135500 0.931400 0.337900
vn -0.053000 -0.894600 -0.443800
vn 0.053000 -0.894600 -0.443800
vn -0.174200 0.956800 0.232900
vn -0.199000 -0.943200 -0.266200
vn -0.241400 0.967900 0.070100
vn -0.276800 -0.957600 -0.080400
vn -0.241400 0.967900 -0.070100
vn -0.276800 -0.957500 0.080400
vn -0.174200 0.956800 -0.232900
vn -0.199000 -0.943200 0.266200
vn 0.046900 0.918300 -0.393000
vn -0.046900 0.918300 -0.393000
vn -0.153600 -0.910900 0.383100
vn 0.135500 0.931400 -0.337900
vn -0.535400 0.000000 -0.844600
vn -0.084300 -0.994500 -0.062800
vn 0.092300 0.995700 -0.003800
vn -0.535400 0.000000 0.844600
vn 0.537800 0.000000 0.843100
vn 0.069300 -0.990100 0.121800
vn -0.024200 -0.092400 0.995400
vn 0.537800 0.000000 -0.843100
vn -0.153600 -0.910900 -0.383100
vn -0.046900 0.918300 0.393000
vn 0.199600 -0.943100 -0.266100
vn 0.046900 0.918300 0.393000
vn 0.276900 -0.957500 -0.080600
vn 0.135500 0.931400 0.337900
vn 0.276900 -0.957500 0.080600
vn 0.174700 0.956700 0.232900
vn 0.199600 -0.943100 0.266100
vn 0.241500 0.967900 0.070200
vn 0.153600 -0.910900 0.383100
vn 0.241500 0.967900 -0.070200
vn 0.053000 -0.894600 0.443800
vn 0.174700 0.956700 -0.232900
vn -0.053000 -0.894600 0.443800
vn -0.135500 0.931400 -0.337900
vn 0.966400 0.000000 0.257200
vn 0.966400 0.000000 -0.257200
vn 0.088300 0.233700 -0.968300
vn -0.108400 -0.945400 0.307400
vn 0.044400 0.996000 0.077900
vn -0.026400 0.089400 -0.995600
vn 0.069300 -0.990100 -0.121800
vn 0.044400 0.996000 -0.077900
vn 0.221600 0.954900 -0.197500
vn -0.108400 -0.945400 -0.307400
vn -0.003600 -0.279500 0.960100
vn 0.221600 0.954900 0.197500
vn -0.262000 -0.894900 0.361200
vn -0.262000 -0.894900 -0.361200
vn 0.061700 0.985500 0.157900
vn 0.016400 -0.216000 0.976300
vn 0.018000 -0.969600 -0.243900
vn 0.061700 0.985500 -0.157900
vn 0.018000 -0.969600 0.243900
vn 0.024400 0.207400 -0.978000
vn 0.024400 0.207400 0.978000
vn 0.088300 0.233700 0.968300
vn -0.026400 0.089400 0.995600
vn 0.016400 -0.216000 -0.976300
vn -0.024200 -0.092400 -0.995400
vn -0.003600 -0.279500 -0.960100
vn 0.028400 -0.405200 0.913800
vn 0.343400 0.200500 -0.917500
vn 0.028400 -0.405200 -0.913800
vn 0.602500 0.773500 0.196800
vn 0.602500 0.773500 -0.196800
vn 0.343400 0.200500 0.917500
vn -0.966500 0.000000 -0.256500
vn -0.966500 0.000000 0.256500
vn 0.627800 0.000000 -0.778400
vn 0.477100 0.000000 0.878800
vn 0.092300 0.995700 0.003800
vn -0.084700 -0.994400 0.062800
vn 0.481800 0.000000 -0.876300
vn 0.684700 0.000000 0.728800
vn 0.627800 0.000000 0.778400
vn 0.236000 0.000000 -0.971800
vn 0.684700 0.000000 -0.728800
vn -0.217300 0.976100 -0.000100
vn -0.000000 -0.000000 1.000000
vn 0.297600 0.000000 0.954700
vn 0.029200 -0.999600 0.001600
vn -0.482000 0.876100 0.001600
vn 0.196800 -0.980400 -0.000000
vn -0.000000 -0.000000 -1.000000
vn -0.217300 0.976100 0.000100
vn -0.964800 -0.263000 0.006900
vn -0.964800 -0.263000 -0.006900
vn -0.770100 -0.209900 0.602400
vn -0.482000 0.876100 -0.001600
vn 0.029200 -0.999600 -0.001600
vn -0.770100 -0.209900 -0.602400
vn -0.637900 0.000000 -0.770100
vn -0.971200 -0.098600 0.216900
vn -0.973600 0.108600 -0.200800
vn -0.637900 0.000000 0.770100
vn -0.973600 0.108600 0.200800
vn -0.971200 -0.098600 -0.216900
vn 0.010300 -0.999900 0.000100
vn 0.067500 -0.997700 0.000200
vn -0.010400 0.999900 -0.000100
vn -0.091900 0.995800 0.000000
vn 0.010300 -0.999900 -0.000100
vn 0.067500 -0.997700 -0.000200
vn -0.010400 0.999900 0.000100
usemtl None
s off
f 65//1 2//1 4//1 66//1
f 66//2 4//2 6//2 67//2
f 67//3 6//3 8//3 68//3
f 68//4 8//4 10//4 69//4
f 69//5 10//5 12//5 70//5
f 70//6 12//6 14//6 71//6
f 71//7 14//7 16//7 72//7
f 72//8 16//8 18//8 73//8
f 73//9 18//9 20//9 74//9
f 74//10 20//10 22//10 75//10
f 75//11 22//11 24//11 76//11
f 76//12 24//12 26//12 77//12
f 77//13 26//13 28//13 78//13
f 78//14 28//14 30//14 79//14
f 14//15 12//15 54//15 55//15
f 80//16 32//16 2//16 65//16
f 79//17 30//17 32//17 80//17
f 11//18 13//18 39//18 38//18
f 33//19 34//19 35//19 36//19 37//19 38//19 39//19 40//19 41//19 42//19 43//19 44//19 45//19 46//19 47//19 48//19
f 21//20 23//20 44//20 43//20
f 31//21 1//21 33//21 48//21
f 7//22 9//22 37//22 36//22
f 17//23 19//23 42//23 41//23
f 27//24 29//24 47//24 46//24
f 3//25 5//25 35//25 34//25
f 13//26 15//26 40//26 39//26
f 23//27 25//27 45//27 44//27
f 9//28 11//28 38//28 37//28
f 19//29 21//29 43//29 42//29
f 29//30 31//30 48//30 47//30
f 5//31 7//31 36//31 35//31
f 15//32 17//32 41//32 40//32
f 1//33 3//33 34//33 33//33
f 25//34 27//34 46//34 45//34
f 50//35 49//35 64//35 63//35 62//35 61//35 60//35 59//35 58//35 57//35 56//35 55//35 54//35 53//35 52//35 51//35
f 24//36 22//36 59//36 60//36
f 2//37 32//37 64//37 49//37
f 10//38 8//38 52//38 53//38
f 20//39 18//39 57//39 58//39
f 30//40 28//40 62//40 63//40
f 6//41 4//41 50//41 51//41
f 16//42 14//42 55//42 56//42
f 26//43 24//43 60//43 61//43
f 12//44 10//44 53//44 54//44
f 22//45 20//45 58//45 59//45
f 32//46 30//46 63//46 64//46
f 8//47 6//47 51//47 52//47
f 18//48 16//48 56//48 57//48
f 4//49 2//49 49//49 50//49
f 28//50 26//50 61//50 62//50
f 82//51 81//51 114//51 115//51
f 74//52 75//52 104//52 105//52
f 96//53 95//53 128//53 97//53
f 81//54 96//54 97//54 114//54
f 75//55 76//55 103//55 104//55
f 94//56 93//56 126//56 127//56
f 76//57 77//57 102//57 103//57
f 93//58 92//58 125//58 126//58
f 77//59 78//59 101//59 102//59
f 92//60 91//60 124//60 125//60
f 78//61 79//61 99//61 101//61
f 91//62 90//62 123//62 124//62
f 65//63 66//63 113//63 98//63
f 80//64 65//64 98//64 100//64
f 90//65 89//65 122//65 123//65
f 66//66 67//66 112//66 113//66
f 1//1 96//1 81//1 3//1
f 3//2 81//2 82//2 5//2
f 5//3 82//3 83//3 7//3
f 7//4 83//4 84//4 9//4
f 9//5 84//5 85//5 11//5
f 11//6 85//6 86//6 13//6
f 13//7 86//7 87//7 15//7
f 15//8 87//8 88//8 17//8
f 17//9 88//9 89//9 19//9
f 19//10 89//10 90//10 21//10
f 21//11 90//11 91//11 23//11
f 23//12 91//12 92//12 25//12
f 25//13 92//13 93//13 27//13
f 27//14 93//14 94//14 29//14
f 31//16 95//16 96//16 1//16
f 29//17 94//17 95//17 31//17
f 127//17 99//17 100//17 128//17
f 128//16 100//16 98//16 97//16
f 126//67 161//67 101//67 99//67 127//67
f 201//68 200//68 165//68 167//68
f 199//69 198//69 162//69 164//69
f 123//70 104//70 103//70 160//70 124//70
f 122//10 105//10 104//10 123//10
f 121//9 106//9 105//9 122//9
f 120//8 107//8 106//8 121//8
f 119//7 108//7 107//7 120//7
f 118//71 131//71 151//71 109//71 108//71 119//71
f 131//72 129//72 135//72 137//72
f 151//73 131//73 137//73 152//73
f 115//74 112//74 111//74 155//74 130//74 116//74
f 114//2 113//2 112//2 115//2
f 97//1 98//1 113//1 114//1
f 95//75 94//75 127//75 128//75
f 73//76 74//76 105//76 106//76
f 83//77 82//77 115//77 116//77
f 72//78 73//78 106//78 107//78
f 84//79 83//79 116//79 117//79
f 71//80 72//80 107//80 108//80
f 85//81 84//81 117//81 118//81
f 70//82 71//82 108//82 109//82
f 86//83 85//83 118//83 119//83
f 69//84 70//84 109//84 110//84
f 87//85 86//85 119//85 120//85
f 68//86 69//86 110//86 111//86
f 88//87 87//87 120//87 121//87
f 67//88 68//88 111//88 112//88
f 89//89 88//89 121//89 122//89
f 79//90 80//90 100//90 99//90
f 117//91 129//91 131//91 118//91
f 116//92 130//92 129//92 117//92
f 158//93 147//93 140//93 157//93
f 146//94 145//94 141//94 143//94
f 110//95 109//95 133//95 132//95
f 155//96 111//96 134//96 156//96
f 129//97 130//97 136//97 135//97
f 111//98 110//98 132//98 134//98
f 147//99 149//99 138//99 140//99
f 145//100 148//100 142//100 141//100
f 154//101 146//101 143//101 153//101
f 149//102 150//102 139//102 138//102
f 143//103 141//103 144//103
f 141//104 142//104 144//104
f 132//105 133//105 150//105 149//105
f 152//106 137//106 146//106 154//106
f 135//107 136//107 148//107 145//107
f 134//108 132//108 149//108 147//108
f 137//109 135//109 145//109 146//109
f 156//110 134//110 147//110 158//110
f 133//111 152//111 154//111 150//111
f 150//112 154//112 153//112 139//112
f 109//113 151//113 152//113 133//113
f 136//114 156//114 158//114 148//114
f 130//115 155//115 156//115 136//115
f 148//116 158//116 157//116 142//116
f 153//117 143//117 144//117
f 157//118 140//118 144//118
f 142//119 157//119 144//119
f 138//120 139//120 144//120
f 140//121 138//121 144//121
f 139//122 153//122 144//122
f 125//123 159//123 161//123 126//123
f 124//124 160//124 159//124 125//124
f 163//125 167//125 173//125 169//125
f 165//19 166//19 172//19 171//19
f 202//126 199//126 164//126 166//126
f 198//127 203//127 163//127 162//127
f 200//128 202//128 166//128 165//128
f 203//129 201//129 167//129 163//129
f 172//130 170//130 176//130 178//130
f 173//19 171//19 177//19 179//19
f 162//35 163//35 169//35 168//35
f 167//19 165//19 171//19 173//19
f 166//131 164//131 170//131 172//131
f 164//35 162//35 168//35 170//35
f 174//35 175//35 181//35 180//35
f 175//132 179//132 185//132 181//132
f 170//35 168//35 174//35 176//35
f 171//19 172//19 178//19 177//19
f 169//133 173//133 179//133 175//133
f 168//35 169//35 175//35 174//35
f 205//134 209//134 186//134 188//134
f 206//135 205//135 188//135 190//135
f 179//19 177//19 183//19 185//19
f 178//136 176//136 182//136 184//136
f 176//35 174//35 180//35 182//35
f 177//19 178//19 184//19 183//19
f 191//137 189//137 195//137 197//137
f 186//138 187//138 193//138 192//138
f 210//139 206//139 190//139 189//139
f 214//140 213//140 191//140 187//140
f 209//141 214//141 187//141 186//141
f 213//139 210//139 189//139 191//139
f 195//142 192//142 193//142 197//142
f 196//143 194//143 192//143 195//143
f 190//144 188//144 194//144 196//144
f 188//145 186//145 192//145 194//145
f 189//146 190//146 196//146 195//146
f 187//147 191//147 197//147 193//147
f 101//148 161//148 201//148 203//148
f 159//149 160//149 202//149 200//149
f 102//150 101//150 203//150 198//150
f 160//151 103//151 199//151 202//151
f 103//152 102//152 198//152 199//152
f 161//153 159//153 200//153 201//153
f 185//154 183//154 211//154 212//154
f 212//155 211//155 210//155 213//155
f 180//156 181//156 215//156 208//156
f 208//157 215//157 214//157 209//157
f 181//140 185//140 212//140 215//140
f 215//140 212//140 213//140 214//140
f 183//158 184//158 207//158 211//158
f 211//159 207//159 206//159 210//159
f 184//135 182//135 204//135 207//135
f 207//135 204//135 205//135 206//135
f 182//160 180//160 208//160 204//160
f 204//157 208//157 209//157 205//157
